<svg xmlns="http://www.w3.org/2000/svg" viewBox="0 0 357.55 372.21"><defs><style>.cls-1{fill:#0a8da1;stroke:#0a8da1;}.cls-1,.cls-2,.cls-3,.cls-4,.cls-5,.cls-6,.cls-7,.cls-8{stroke-miterlimit:10;}.cls-1,.cls-2,.cls-3,.cls-4,.cls-5,.cls-6,.cls-8{stroke-width:2px;}.cls-2{fill:#025e6e;stroke:#025e6e;}.cls-3{fill:#163b41;stroke:#163b41;}.cls-4{fill:#999;stroke:#999;}.cls-5{fill:#666;stroke:#666;}.cls-6{fill:#4d4d4d;stroke:#4d4d4d;}.cls-7{fill:#67d5e6;stroke:#67d5e6;stroke-width:3px;}.cls-8{fill:#e6e6e6;stroke:#ccc;}</style></defs><g id="Layer_2" data-name="Layer 2"><g id="Layer_1-2" data-name="Layer 1"><rect class="cls-1" x="219.45" y="190.85" width="37.55" height="37.55" rx="12.39" transform="translate(28.6 447.85) rotate(-90)"/><rect class="cls-1" x="219.45" y="143.54" width="37.55" height="37.55" rx="12.39" transform="translate(75.91 400.54) rotate(-90)"/><rect class="cls-2" x="269.23" y="143.54" width="37.55" height="37.55" rx="12.39" transform="translate(125.68 450.32) rotate(-90)"/><rect class="cls-2" x="269.23" y="96.23" width="37.55" height="37.55" rx="12.39" transform="translate(172.99 403.01) rotate(-90)"/><rect class="cls-2" x="269.23" y="237.7" width="37.55" height="37.55" rx="12.39" transform="translate(31.53 544.47) rotate(-90)"/><rect class="cls-2" x="269.23" y="190.39" width="37.55" height="37.55" rx="12.39" transform="translate(78.84 497.16) rotate(-90)"/><rect class="cls-3" x="318.77" y="49.39" width="37.55" height="37.55" rx="12.39" transform="translate(269.38 405.72) rotate(-90)"/><rect class="cls-3" x="318.77" y="2.08" width="37.55" height="37.55" rx="12.39" transform="translate(316.69 358.41) rotate(-90)"/><rect class="cls-3" x="318.77" y="143.54" width="37.55" height="37.55" rx="12.39" transform="translate(175.23 499.87) rotate(-90)"/><rect class="cls-3" x="318.77" y="96.23" width="37.55" height="37.55" rx="12.39" transform="translate(222.54 452.56) rotate(-90)"/><rect class="cls-3" x="319" y="238.16" width="37.55" height="37.55" rx="12.39" transform="translate(80.84 594.71) rotate(-90)"/><rect class="cls-3" x="319" y="190.85" width="37.55" height="37.55" rx="12.39" transform="translate(128.15 547.4) rotate(-90)"/><rect class="cls-3" x="319" y="332.32" width="37.55" height="37.55" rx="12.39" transform="translate(-13.32 688.86) rotate(-90)"/><rect class="cls-3" x="319" y="285.01" width="37.55" height="37.55" rx="12.39" transform="translate(33.99 641.55) rotate(-90)"/><rect class="cls-4" x="100.55" y="143.54" width="37.55" height="37.55" rx="12.39" transform="translate(281.64 43) rotate(90)"/><rect class="cls-4" x="100.55" y="190.85" width="37.55" height="37.55" rx="12.39" transform="translate(328.95 90.31) rotate(90)"/><rect class="cls-5" x="50.77" y="190.85" width="37.55" height="37.55" rx="12.39" transform="translate(279.18 140.08) rotate(90)"/><rect class="cls-5" x="50.77" y="238.16" width="37.55" height="37.55" rx="12.39" transform="translate(326.49 187.39) rotate(90)"/><rect class="cls-5" x="50.77" y="96.7" width="37.55" height="37.55" rx="12.39" transform="translate(185.03 45.93) rotate(90)"/><rect class="cls-5" x="50.77" y="144.01" width="37.55" height="37.55" rx="12.39" transform="translate(232.34 93.24) rotate(90)"/><rect class="cls-6" x="1.23" y="285.01" width="37.55" height="37.55" rx="12.39" transform="translate(323.78 283.78) rotate(90)"/><rect class="cls-6" x="1.23" y="332.32" width="37.55" height="37.55" rx="12.39" transform="translate(371.09 331.09) rotate(90)"/><rect class="cls-6" x="1.23" y="190.85" width="37.55" height="37.55" rx="12.39" transform="translate(229.63 189.63) rotate(90)"/><rect class="cls-6" x="1.23" y="238.16" width="37.55" height="37.55" rx="12.39" transform="translate(276.94 236.94) rotate(90)"/><rect class="cls-6" x="1" y="96.23" width="37.55" height="37.55" rx="12.39" transform="translate(134.78 95.23) rotate(90)"/><rect class="cls-6" x="1" y="143.54" width="37.55" height="37.55" rx="12.39" transform="translate(182.09 142.54) rotate(90)"/><rect class="cls-6" x="1" y="2.08" width="37.55" height="37.55" rx="12.39" transform="translate(40.63 1.08) rotate(90)"/><rect class="cls-6" x="1" y="49.39" width="37.55" height="37.55" rx="12.39" transform="translate(87.94 48.39) rotate(90)"/><rect class="cls-7" x="150.1" y="157.73" width="57.31" height="57.31" rx="10.23" transform="translate(-7.63 365.14) rotate(-90)"/><path class="cls-8" d="M179,226.4s-11.46,78.93-134.2,144.81H313S206.19,321.58,179,226.4Z"/><path class="cls-8" d="M178.57,145.81S190,66.88,312.77,1H44.55S151.36,50.62,178.57,145.81Z"/></g></g></svg>