<svg xmlns="http://www.w3.org/2000/svg" viewBox="0 0 311.41 189.55"><defs><style>.cls-1,.cls-5,.cls-6,.cls-7{fill:none;}.cls-1,.cls-2{stroke:#666;}.cls-1,.cls-2,.cls-3,.cls-4,.cls-5,.cls-6,.cls-7{stroke-miterlimit:10;}.cls-2{fill:#ccc;}.cls-3{fill:#025e6e;}.cls-3,.cls-4{stroke:#163b41;}.cls-4{fill:#163b41;}.cls-5{stroke:#001632;}.cls-6{stroke:#999;}.cls-7{stroke:#b3b3b3;}</style></defs><g id="Layer_2" data-name="Layer 2"><g id="Layer_1-2" data-name="Layer 1"><path class="cls-1" d="M108.25,4.61S141,20.09,145.66,25.51h4.65S169,10.8,188.28.74l3.06,12.51S206.83,67.69,179,189.05H131S103.08,110.67,105,18.16A91.53,91.53,0,0,1,108.25,4.61Z"/><path class="cls-2" d="M67.72,54.73c-13.31,10.46-48.5,24.82-47.86,26S12.07,68.45.55,189.05H101.16S63.58,113.29,60.55,69.66c0,0,8.81-8.74,17-10.91Z"/><path class="cls-3" d="M310.83,189.05S294.31,87.83,289.92,77.51s-24.26-10.06-55.48-29.68l-9,6.9s16.77,7,17.54,10.65c0,0-1.54,46.31-34.83,123.67Z"/><path class="cls-4" d="M191.34,13.25s4.91,14.46,43.1,34.58l-9,6.9S241.15,61,243,65.38c0,0-1.41,46.44-34.83,123.67H179S204.5,85,191.34,13.25Z"/><path class="cls-5" d="M217.66,68.87s8.52,1.55,13.55,8.13"/><path class="cls-4" d="M67.72,54.73s35-20.31,37.3-36.57c0,0-4.52,77,25.93,170.89H101.16S56.21,92.25,60.55,69.66c0,0,7.41-8.51,17-10.91Z"/><path class="cls-6" d="M141.7,22.36s4.35,158.75,5.9,166.69"/><circle class="cls-6" cx="151.21" cy="76.16" r="4.35"/><circle class="cls-7" cx="152.69" cy="124.42" r="4.35"/></g></g></svg>